<?xml version="1.0" encoding="UTF-8" standalone="no"?>
<!-- Created with Inkscape (http://www.inkscape.org/) -->

<svg
   width="120"
   height="120"
   viewBox="0 0 31.75 31.75"
   version="1.1"
   id="svg5"
   sodipodi:docname="close_normal_hover.svg"
   inkscape:version="1.1 (1:1.1+202105261518+ce6663b3b7)"
   xmlns:inkscape="http://www.inkscape.org/namespaces/inkscape"
   xmlns:sodipodi="http://sodipodi.sourceforge.net/DTD/sodipodi-0.dtd"
   xmlns="http://www.w3.org/2000/svg"
   xmlns:svg="http://www.w3.org/2000/svg">
  <sodipodi:namedview
     id="namedview7"
     pagecolor="#ffffff"
     bordercolor="#666666"
     borderopacity="1.0"
     inkscape:pageshadow="2"
     inkscape:pageopacity="0.0"
     inkscape:pagecheckerboard="false"
     inkscape:document-units="px"
     showgrid="true"
     inkscape:lockguides="false"
     showguides="true"
     inkscape:guide-bbox="true"
     inkscape:zoom="3.3705423"
     inkscape:cx="9.0489889"
     inkscape:cy="71.501847"
     inkscape:window-width="1366"
     inkscape:window-height="724"
     inkscape:window-x="0"
     inkscape:window-y="20"
     inkscape:window-maximized="1"
     inkscape:current-layer="layer2">
    <inkscape:grid
       type="xygrid"
       id="grid249" />
    <sodipodi:guide
       position="27.78125,3.96875"
       orientation="1,0"
       id="guide251" />
    <sodipodi:guide
       position="3.96875,3.96875"
       orientation="1,0"
       id="guide253" />
    <sodipodi:guide
       position="15.875,3.96875"
       orientation="0,-1"
       id="guide255" />
    <sodipodi:guide
       position="15.875,27.78125"
       orientation="0,-1"
       id="guide257" />
    <sodipodi:guide
       position="15.875,15.875"
       orientation="0.70710678,-0.70710678"
       id="guide259" />
    <sodipodi:guide
       position="17.197917,14.552083"
       orientation="-0.70710678,-0.70710678"
       id="guide261" />
  </sodipodi:namedview>
  <defs
     id="defs2" />
  <g
     inkscape:label="Capa 1"
     inkscape:groupmode="layer"
     id="layer1"
     style="display:none">
    <rect
       style="fill:#0000ff;fill-rule:evenodd;stroke-width:0.264583"
       id="rect289"
       width="5.2916665"
       height="5.2916665"
       x="13.229166"
       y="13.229166" />
  </g>
  <g
     inkscape:groupmode="layer"
     id="layer2"
     inkscape:label="Capa 2"
     style="display:inline">
    <path
       id="rect314"
       style="fill:#a89984;fill-opacity:1;stroke-width:0.187088"
       d="m 21.828124,9.921876 a 1.8708862,1.8708862 0 0 0 -2.645833,-10e-8 L 15.875,13.229167 12.567709,9.9218762 a 1.8708862,1.8708862 0 0 0 -2.6458328,0 1.8708862,1.8708862 0 0 0 4e-7,2.6458328 L 13.229167,15.875 9.9218764,19.182291 a 1.8708862,1.8708862 0 0 0 0,2.645833 1.8708862,1.8708862 0 0 0 2.6458326,0 l 3.307291,-3.307291 3.307291,3.307291 a 1.8708862,1.8708862 0 0 0 2.645833,0 1.8708862,1.8708862 0 0 0 0,-2.645834 L 18.520833,15.875 21.828124,12.567709 a 1.8708862,1.8708862 0 0 0 0,-2.645833 z" />
  </g>
</svg>
